<mxfile host="Electron" modified="2024-05-28T10:09:19.378Z" agent="Mozilla/5.0 (Windows NT 10.0; Win64; x64) AppleWebKit/537.36 (KHTML, like Gecko) draw.io/21.7.5 Chrome/114.0.5735.289 Electron/25.8.1 Safari/537.36" etag="Lh3KHy58dLNelSCzbJLD" version="21.7.5" type="device">
  <diagram name="第 1 页" id="akJ0fcTaUh_Lfy5anjCc">
    <mxGraphModel dx="146" dy="3135" grid="1" gridSize="10" guides="1" tooltips="1" connect="1" arrows="1" fold="1" page="1" pageScale="1" pageWidth="827" pageHeight="1169" math="0" shadow="0">
      <root>
        <mxCell id="0" />
        <mxCell id="1" parent="0" />
        <mxCell id="GvSntDB-U06VMIfwcd8t-68" value="" style="rounded=1;whiteSpace=wrap;html=1;arcSize=2;movable=1;resizable=1;rotatable=1;deletable=1;editable=1;locked=0;connectable=1;fillColor=#fad7ac;strokeColor=#b46504;" vertex="1" parent="1">
          <mxGeometry x="2050" y="-1220" width="690" height="630" as="geometry" />
        </mxCell>
        <mxCell id="GvSntDB-U06VMIfwcd8t-65" value="" style="rounded=1;whiteSpace=wrap;html=1;arcSize=2;fillColor=#b1ddf0;strokeColor=#10739e;" vertex="1" parent="1">
          <mxGeometry x="920" y="-1220" width="610" height="630" as="geometry" />
        </mxCell>
        <mxCell id="GvSntDB-U06VMIfwcd8t-32" value="" style="rounded=1;whiteSpace=wrap;html=1;arcSize=2;movable=1;resizable=1;rotatable=1;deletable=1;editable=1;locked=0;connectable=1;fillColor=#b1ddf0;strokeColor=#10739e;" vertex="1" parent="1">
          <mxGeometry x="1540" y="-1220" width="480" height="630" as="geometry" />
        </mxCell>
        <mxCell id="GvSntDB-U06VMIfwcd8t-25" style="edgeStyle=orthogonalEdgeStyle;rounded=0;orthogonalLoop=1;jettySize=auto;html=1;exitX=1;exitY=0.5;exitDx=0;exitDy=0;entryX=0;entryY=0.5;entryDx=0;entryDy=0;" edge="1" parent="1" source="GvSntDB-U06VMIfwcd8t-19" target="GvSntDB-U06VMIfwcd8t-24">
          <mxGeometry relative="1" as="geometry" />
        </mxCell>
        <mxCell id="GvSntDB-U06VMIfwcd8t-19" value="&lt;div style=&quot;font-family: Consolas, &amp;quot;Courier New&amp;quot;, monospace; font-size: 21px; line-height: 19px;&quot;&gt;___on_agent_wakeup___&lt;/div&gt;" style="rounded=1;whiteSpace=wrap;html=1;fillColor=#e1d5e7;strokeColor=#9673a6;fontSize=21;labelBackgroundColor=none;fontColor=#000000;fontStyle=1" vertex="1" parent="1">
          <mxGeometry x="1650" y="-1080" width="324" height="70" as="geometry" />
        </mxCell>
        <mxCell id="GvSntDB-U06VMIfwcd8t-20" value="" style="endArrow=none;dashed=1;html=1;dashPattern=1 3;strokeWidth=2;rounded=0;" edge="1" parent="1">
          <mxGeometry width="50" height="50" relative="1" as="geometry">
            <mxPoint x="2035" y="-590" as="sourcePoint" />
            <mxPoint x="2035" y="-1220" as="targetPoint" />
          </mxGeometry>
        </mxCell>
        <mxCell id="GvSntDB-U06VMIfwcd8t-64" style="edgeStyle=orthogonalEdgeStyle;rounded=0;orthogonalLoop=1;jettySize=auto;html=1;entryX=0.5;entryY=0;entryDx=0;entryDy=0;" edge="1" parent="1" target="GvSntDB-U06VMIfwcd8t-19">
          <mxGeometry relative="1" as="geometry">
            <mxPoint x="1812" y="-1169" as="sourcePoint" />
          </mxGeometry>
        </mxCell>
        <mxCell id="GvSntDB-U06VMIfwcd8t-23" value="Agent" style="text;html=1;strokeColor=#666666;fillColor=#f5f5f5;align=center;verticalAlign=middle;whiteSpace=wrap;rounded=0;fontSize=21;fontColor=#333333;fontStyle=1" vertex="1" parent="1">
          <mxGeometry x="2060" y="-1199" width="210" height="30" as="geometry" />
        </mxCell>
        <mxCell id="GvSntDB-U06VMIfwcd8t-28" style="edgeStyle=orthogonalEdgeStyle;rounded=0;orthogonalLoop=1;jettySize=auto;html=1;exitX=0.5;exitY=1;exitDx=0;exitDy=0;fontStyle=1" edge="1" parent="1" source="GvSntDB-U06VMIfwcd8t-24" target="GvSntDB-U06VMIfwcd8t-27">
          <mxGeometry relative="1" as="geometry" />
        </mxCell>
        <mxCell id="GvSntDB-U06VMIfwcd8t-30" style="edgeStyle=orthogonalEdgeStyle;rounded=0;orthogonalLoop=1;jettySize=auto;html=1;entryX=0.5;entryY=0;entryDx=0;entryDy=0;fontStyle=1" edge="1" parent="1" source="GvSntDB-U06VMIfwcd8t-24" target="GvSntDB-U06VMIfwcd8t-29">
          <mxGeometry relative="1" as="geometry" />
        </mxCell>
        <mxCell id="GvSntDB-U06VMIfwcd8t-24" value="&lt;div style=&quot;font-family: Consolas, &amp;quot;Courier New&amp;quot;, monospace; font-size: 21px; line-height: 19px;&quot;&gt;_handle_command&lt;/div&gt;" style="rounded=1;whiteSpace=wrap;html=1;fillColor=#e1d5e7;strokeColor=#9673a6;fontSize=21;labelBackgroundColor=none;fontColor=#000000;fontStyle=1" vertex="1" parent="1">
          <mxGeometry x="2268" y="-1050" width="185.14" height="40" as="geometry" />
        </mxCell>
        <mxCell id="GvSntDB-U06VMIfwcd8t-38" style="edgeStyle=orthogonalEdgeStyle;rounded=0;orthogonalLoop=1;jettySize=auto;html=1;fontStyle=1" edge="1" parent="1" source="GvSntDB-U06VMIfwcd8t-27" target="GvSntDB-U06VMIfwcd8t-37">
          <mxGeometry relative="1" as="geometry" />
        </mxCell>
        <mxCell id="GvSntDB-U06VMIfwcd8t-27" value="&lt;div style=&quot;font-family: Consolas, &amp;quot;Courier New&amp;quot;, monospace; font-size: 21px; line-height: 19px;&quot;&gt;&lt;span style=&quot;border-color: var(--border-color); text-align: left; font-size: 21px;&quot;&gt;on_agent_wakeup&lt;/span&gt;&lt;br style=&quot;font-size: 21px;&quot;&gt;&lt;/div&gt;" style="rounded=1;whiteSpace=wrap;html=1;fillColor=#e1d5e7;strokeColor=#9673a6;fontSize=21;labelBackgroundColor=none;fontColor=#000000;fontStyle=1" vertex="1" parent="1">
          <mxGeometry x="2128.86" y="-925" width="208.29" height="45" as="geometry" />
        </mxCell>
        <mxCell id="GvSntDB-U06VMIfwcd8t-39" style="edgeStyle=orthogonalEdgeStyle;rounded=0;orthogonalLoop=1;jettySize=auto;html=1;entryX=0.5;entryY=0;entryDx=0;entryDy=0;fontStyle=1" edge="1" parent="1" source="GvSntDB-U06VMIfwcd8t-29" target="GvSntDB-U06VMIfwcd8t-37">
          <mxGeometry relative="1" as="geometry" />
        </mxCell>
        <mxCell id="GvSntDB-U06VMIfwcd8t-29" value="&lt;div style=&quot;font-family: Consolas, &amp;quot;Courier New&amp;quot;, monospace; font-size: 21px; line-height: 19px;&quot;&gt;&lt;div style=&quot;line-height: 19px; font-size: 21px;&quot;&gt;on_children_fin&lt;/div&gt;&lt;/div&gt;" style="rounded=1;whiteSpace=wrap;html=1;fillColor=#e1d5e7;strokeColor=#9673a6;fontSize=21;labelBackgroundColor=none;fontColor=#000000;fontStyle=1" vertex="1" parent="1">
          <mxGeometry x="2378" y="-925" width="208.29" height="45" as="geometry" />
        </mxCell>
        <mxCell id="GvSntDB-U06VMIfwcd8t-34" value="第1种情况(平级智能体调用)：&lt;br&gt;level_shift&amp;nbsp; ==&amp;nbsp; &amp;nbsp;&#39;→&#39;&lt;br&gt;&lt;br&gt;第2种情况(母智能体调用)：&lt;br style=&quot;border-color: var(--border-color);&quot;&gt;level_shift&amp;nbsp; ==&amp;nbsp;&amp;nbsp;&amp;nbsp;&#39;↓&lt;span style=&quot;background-color: initial;&quot;&gt;&#39;&lt;/span&gt;" style="text;html=1;strokeColor=none;fillColor=none;align=center;verticalAlign=middle;whiteSpace=wrap;rounded=0;fontStyle=1" vertex="1" parent="1">
          <mxGeometry x="2068" y="-1015" width="190" height="90" as="geometry" />
        </mxCell>
        <mxCell id="GvSntDB-U06VMIfwcd8t-35" value="第3种情况(子智能体调用返回)：&lt;br&gt;level_shift&amp;nbsp; ==&amp;nbsp; &amp;nbsp;&#39;↑&lt;span style=&quot;background-color: initial;&quot;&gt;&#39;&lt;/span&gt;" style="text;html=1;strokeColor=none;fillColor=none;align=center;verticalAlign=middle;whiteSpace=wrap;rounded=0;fontStyle=1" vertex="1" parent="1">
          <mxGeometry x="2538" y="-970" width="190" height="50" as="geometry" />
        </mxCell>
        <mxCell id="GvSntDB-U06VMIfwcd8t-42" style="edgeStyle=orthogonalEdgeStyle;rounded=0;orthogonalLoop=1;jettySize=auto;html=1;" edge="1" parent="1" source="GvSntDB-U06VMIfwcd8t-37" target="GvSntDB-U06VMIfwcd8t-41">
          <mxGeometry relative="1" as="geometry" />
        </mxCell>
        <mxCell id="GvSntDB-U06VMIfwcd8t-37" value="&lt;div style=&quot;font-family: Consolas, &amp;quot;Courier New&amp;quot;, monospace; font-size: 21px; line-height: 19px;&quot;&gt;on_agent_fin&lt;br style=&quot;font-size: 21px;&quot;&gt;&lt;/div&gt;" style="rounded=1;whiteSpace=wrap;html=1;fillColor=#e1d5e7;strokeColor=#9673a6;fontSize=21;labelBackgroundColor=none;fontColor=#000000;fontStyle=1" vertex="1" parent="1">
          <mxGeometry x="2256.42" y="-800" width="208.29" height="45" as="geometry" />
        </mxCell>
        <mxCell id="GvSntDB-U06VMIfwcd8t-40" value="" style="endArrow=none;dashed=1;html=1;dashPattern=1 3;strokeWidth=2;rounded=0;" edge="1" parent="1">
          <mxGeometry width="50" height="50" relative="1" as="geometry">
            <mxPoint x="2045" y="-590" as="sourcePoint" />
            <mxPoint x="2045" y="-1220" as="targetPoint" />
          </mxGeometry>
        </mxCell>
        <mxCell id="GvSntDB-U06VMIfwcd8t-44" style="edgeStyle=orthogonalEdgeStyle;rounded=0;orthogonalLoop=1;jettySize=auto;html=1;entryX=0.5;entryY=1;entryDx=0;entryDy=0;" edge="1" parent="1" source="GvSntDB-U06VMIfwcd8t-41" target="GvSntDB-U06VMIfwcd8t-49">
          <mxGeometry relative="1" as="geometry">
            <mxPoint x="1435" y="-780" as="targetPoint" />
            <Array as="points">
              <mxPoint x="1810" y="-540" />
              <mxPoint x="1380" y="-540" />
              <mxPoint x="1380" y="-630" />
            </Array>
          </mxGeometry>
        </mxCell>
        <mxCell id="GvSntDB-U06VMIfwcd8t-41" value="&lt;div style=&quot;font-family: Consolas, &amp;quot;Courier New&amp;quot;, monospace; font-size: 21px; line-height: 19px;&quot;&gt;___on_agent_finish___&lt;/div&gt;" style="rounded=1;whiteSpace=wrap;html=1;fillColor=#e1d5e7;strokeColor=#9673a6;fontSize=21;labelBackgroundColor=none;fontColor=#000000;fontStyle=1" vertex="1" parent="1">
          <mxGeometry x="1650" y="-800" width="324" height="70" as="geometry" />
        </mxCell>
        <mxCell id="GvSntDB-U06VMIfwcd8t-61" style="edgeStyle=orthogonalEdgeStyle;rounded=0;orthogonalLoop=1;jettySize=auto;html=1;entryX=0.5;entryY=1;entryDx=0;entryDy=0;" edge="1" parent="1" source="GvSntDB-U06VMIfwcd8t-69" target="GvSntDB-U06VMIfwcd8t-60">
          <mxGeometry relative="1" as="geometry" />
        </mxCell>
        <mxCell id="GvSntDB-U06VMIfwcd8t-45" value="&lt;div style=&quot;font-family: Consolas, &amp;quot;Courier New&amp;quot;, monospace; font-size: 21px; line-height: 19px;&quot;&gt;wakeup_downstream_agent&lt;br&gt;&lt;/div&gt;" style="rounded=1;whiteSpace=wrap;html=1;fillColor=#e1d5e7;strokeColor=#9673a6;fontSize=21;labelBackgroundColor=none;fontColor=#000000;fontStyle=1" vertex="1" parent="1">
          <mxGeometry x="940" y="-940" width="280" height="50" as="geometry" />
        </mxCell>
        <mxCell id="GvSntDB-U06VMIfwcd8t-62" style="edgeStyle=orthogonalEdgeStyle;rounded=0;orthogonalLoop=1;jettySize=auto;html=1;entryX=0.5;entryY=1;entryDx=0;entryDy=0;" edge="1" parent="1" source="GvSntDB-U06VMIfwcd8t-71" target="GvSntDB-U06VMIfwcd8t-60">
          <mxGeometry relative="1" as="geometry" />
        </mxCell>
        <mxCell id="GvSntDB-U06VMIfwcd8t-46" value="&lt;div style=&quot;font-family: Consolas, &amp;quot;Courier New&amp;quot;, monospace; font-size: 21px; line-height: 19px;&quot;&gt;_wakeup_child_agent&lt;/div&gt;" style="rounded=1;whiteSpace=wrap;html=1;fillColor=#e1d5e7;strokeColor=#9673a6;fontSize=21;labelBackgroundColor=none;fontColor=#000000;fontStyle=1" vertex="1" parent="1">
          <mxGeometry x="1241" y="-940" width="280" height="50" as="geometry" />
        </mxCell>
        <mxCell id="GvSntDB-U06VMIfwcd8t-50" style="edgeStyle=orthogonalEdgeStyle;rounded=0;orthogonalLoop=1;jettySize=auto;html=1;exitX=0;exitY=0.5;exitDx=0;exitDy=0;fontStyle=1" edge="1" parent="1" source="GvSntDB-U06VMIfwcd8t-49" target="GvSntDB-U06VMIfwcd8t-45">
          <mxGeometry relative="1" as="geometry" />
        </mxCell>
        <mxCell id="GvSntDB-U06VMIfwcd8t-51" value="否" style="edgeLabel;html=1;align=center;verticalAlign=middle;resizable=0;points=[];fontStyle=1" vertex="1" connectable="0" parent="GvSntDB-U06VMIfwcd8t-50">
          <mxGeometry x="-0.5691" relative="1" as="geometry">
            <mxPoint as="offset" />
          </mxGeometry>
        </mxCell>
        <mxCell id="GvSntDB-U06VMIfwcd8t-52" style="edgeStyle=orthogonalEdgeStyle;rounded=0;orthogonalLoop=1;jettySize=auto;html=1;exitX=0.5;exitY=0;exitDx=0;exitDy=0;entryX=0.5;entryY=1;entryDx=0;entryDy=0;fontStyle=1" edge="1" parent="1" source="GvSntDB-U06VMIfwcd8t-49" target="GvSntDB-U06VMIfwcd8t-54">
          <mxGeometry relative="1" as="geometry" />
        </mxCell>
        <mxCell id="GvSntDB-U06VMIfwcd8t-53" value="是" style="edgeLabel;html=1;align=center;verticalAlign=middle;resizable=0;points=[];fontStyle=1" vertex="1" connectable="0" parent="GvSntDB-U06VMIfwcd8t-52">
          <mxGeometry x="-0.7238" y="-1" relative="1" as="geometry">
            <mxPoint x="-2" y="-20" as="offset" />
          </mxGeometry>
        </mxCell>
        <mxCell id="GvSntDB-U06VMIfwcd8t-49" value="有子智能体?" style="rhombus;whiteSpace=wrap;html=1;fillColor=#e1d5e7;strokeColor=#9673a6;fontStyle=1" vertex="1" parent="1">
          <mxGeometry x="1316" y="-700" width="130" height="70" as="geometry" />
        </mxCell>
        <mxCell id="GvSntDB-U06VMIfwcd8t-55" style="edgeStyle=orthogonalEdgeStyle;rounded=0;orthogonalLoop=1;jettySize=auto;html=1;exitX=0;exitY=0.5;exitDx=0;exitDy=0;fontStyle=1" edge="1" parent="1" source="GvSntDB-U06VMIfwcd8t-54">
          <mxGeometry relative="1" as="geometry">
            <mxPoint x="1080" y="-890" as="targetPoint" />
            <Array as="points">
              <mxPoint x="1080" y="-799" />
            </Array>
          </mxGeometry>
        </mxCell>
        <mxCell id="GvSntDB-U06VMIfwcd8t-56" style="edgeStyle=orthogonalEdgeStyle;rounded=0;orthogonalLoop=1;jettySize=auto;html=1;exitX=0.5;exitY=0;exitDx=0;exitDy=0;entryX=0.5;entryY=1;entryDx=0;entryDy=0;fontStyle=1" edge="1" parent="1" source="GvSntDB-U06VMIfwcd8t-54" target="GvSntDB-U06VMIfwcd8t-46">
          <mxGeometry relative="1" as="geometry" />
        </mxCell>
        <mxCell id="GvSntDB-U06VMIfwcd8t-59" value="是" style="edgeLabel;html=1;align=center;verticalAlign=middle;resizable=0;points=[];fontStyle=1" vertex="1" connectable="0" parent="GvSntDB-U06VMIfwcd8t-56">
          <mxGeometry x="-0.2629" y="2" relative="1" as="geometry">
            <mxPoint x="1" as="offset" />
          </mxGeometry>
        </mxCell>
        <mxCell id="GvSntDB-U06VMIfwcd8t-54" value="level_shift&amp;nbsp; !=&amp;nbsp; &amp;nbsp;&#39;↑&#39;" style="rhombus;whiteSpace=wrap;html=1;fillColor=#e1d5e7;strokeColor=#9673a6;fontStyle=1" vertex="1" parent="1">
          <mxGeometry x="1316" y="-834" width="130" height="70" as="geometry" />
        </mxCell>
        <mxCell id="GvSntDB-U06VMIfwcd8t-57" value="第3种情况(子智能体调用返回)：&lt;br&gt;level_shift&amp;nbsp; ==&amp;nbsp; &amp;nbsp;&#39;↑&lt;span style=&quot;background-color: initial;&quot;&gt;&#39;&lt;/span&gt;" style="text;html=1;strokeColor=none;fillColor=none;align=center;verticalAlign=middle;whiteSpace=wrap;rounded=0;fontStyle=1" vertex="1" parent="1">
          <mxGeometry x="1130" y="-840" width="190" height="50" as="geometry" />
        </mxCell>
        <mxCell id="GvSntDB-U06VMIfwcd8t-67" style="edgeStyle=orthogonalEdgeStyle;rounded=0;orthogonalLoop=1;jettySize=auto;html=1;exitX=0.5;exitY=0;exitDx=0;exitDy=0;entryX=0.5;entryY=0;entryDx=0;entryDy=0;" edge="1" parent="1" source="GvSntDB-U06VMIfwcd8t-60" target="GvSntDB-U06VMIfwcd8t-66">
          <mxGeometry relative="1" as="geometry">
            <Array as="points">
              <mxPoint x="1225" y="-1280" />
              <mxPoint x="1812" y="-1280" />
            </Array>
          </mxGeometry>
        </mxCell>
        <mxCell id="GvSntDB-U06VMIfwcd8t-60" value="Next Agent Proxy" style="text;html=1;strokeColor=#666666;fillColor=#f5f5f5;align=center;verticalAlign=middle;whiteSpace=wrap;rounded=0;fontSize=21;fontColor=#333333;fontStyle=1" vertex="1" parent="1">
          <mxGeometry x="1120" y="-1170" width="210" height="30" as="geometry" />
        </mxCell>
        <mxCell id="GvSntDB-U06VMIfwcd8t-66" value="Agent Proxy" style="text;html=1;strokeColor=#666666;fillColor=#f5f5f5;align=center;verticalAlign=middle;whiteSpace=wrap;rounded=0;fontSize=21;fontColor=#333333;fontStyle=1" vertex="1" parent="1">
          <mxGeometry x="1707" y="-1199" width="210" height="30" as="geometry" />
        </mxCell>
        <mxCell id="GvSntDB-U06VMIfwcd8t-70" value="" style="edgeStyle=orthogonalEdgeStyle;rounded=0;orthogonalLoop=1;jettySize=auto;html=1;entryX=0.5;entryY=1;entryDx=0;entryDy=0;" edge="1" parent="1" source="GvSntDB-U06VMIfwcd8t-45" target="GvSntDB-U06VMIfwcd8t-69">
          <mxGeometry relative="1" as="geometry">
            <mxPoint x="1080" y="-940" as="sourcePoint" />
            <mxPoint x="1225" y="-1140" as="targetPoint" />
          </mxGeometry>
        </mxCell>
        <mxCell id="GvSntDB-U06VMIfwcd8t-69" value="&lt;div style=&quot;color: rgb(225, 228, 232); background-color: rgb(36, 41, 46); font-family: Consolas, &amp;quot;Courier New&amp;quot;, monospace; font-weight: normal; font-size: 14px; line-height: 19px;&quot;&gt;&lt;div&gt;&lt;span style=&quot;color: #e1e4e8;&quot;&gt;downstream_override&lt;/span&gt;&lt;/div&gt;&lt;/div&gt;" style="text;whiteSpace=wrap;html=1;align=center;" vertex="1" parent="1">
          <mxGeometry x="990" y="-1010" width="180" height="40" as="geometry" />
        </mxCell>
        <mxCell id="GvSntDB-U06VMIfwcd8t-72" value="" style="edgeStyle=orthogonalEdgeStyle;rounded=0;orthogonalLoop=1;jettySize=auto;html=1;entryX=0.5;entryY=1;entryDx=0;entryDy=0;" edge="1" parent="1" source="GvSntDB-U06VMIfwcd8t-46" target="GvSntDB-U06VMIfwcd8t-71">
          <mxGeometry relative="1" as="geometry">
            <mxPoint x="1381" y="-940" as="sourcePoint" />
            <mxPoint x="1225" y="-1140" as="targetPoint" />
          </mxGeometry>
        </mxCell>
        <mxCell id="GvSntDB-U06VMIfwcd8t-71" value="&lt;div style=&quot;color: rgb(225, 228, 232); background-color: rgb(36, 41, 46); font-family: Consolas, &amp;quot;Courier New&amp;quot;, monospace; font-weight: normal; font-size: 14px; line-height: 19px;&quot;&gt;&lt;div&gt;&lt;span style=&quot;color: #e1e4e8;&quot;&gt;children_select_override&lt;/span&gt;&lt;/div&gt;&lt;/div&gt;" style="text;whiteSpace=wrap;html=1;align=center;" vertex="1" parent="1">
          <mxGeometry x="1260" y="-1010" width="242" height="40" as="geometry" />
        </mxCell>
      </root>
    </mxGraphModel>
  </diagram>
</mxfile>
